<?xml version="1.0" encoding="iso-8859-1"?>
<!-- Generator: Adobe Illustrator 19.0.0, SVG Export Plug-In . SVG Version: 6.00 Build 0)  -->
<svg version="1.1" id="&#x56FE;&#x5C42;_1" xmlns="http://www.w3.org/2000/svg" xmlns:xlink="http://www.w3.org/1999/xlink" x="0px"
	 y="0px" viewBox="0 0 297.91 94.549" style="enable-background:new 0 0 297.91 94.549;" xml:space="preserve">
<g>
	<defs>
		<rect id="SVGID_1_" y="0" width="190.345" height="60.411"/>
	</defs>
	<clipPath id="SVGID_2_">
		<use xlink:href="#SVGID_1_"  style="overflow:visible;"/>
	</clipPath>
	<path style="clip-path:url(#SVGID_2_);fill:#02C1FF;" d="M5.15,30.569v21.199c0,1.139,1.068,1.975,2.173,1.702l2.91-0.718V26.013
		H5.942C2.674,26.013,0,23.339,0,20.07V6.932C0,3.7,2.644,1.056,5.876,1.056h9.903c3.301,0,5.876,2.641,5.876,5.876v13.139
		c0,3.235-2.575,5.942-5.876,5.942h-1.056v7.658h7.791v4.49h-7.791v13.535l6.536-1.65l1.122,4.357L5.416,58.856
		C2.962,59.5,0.579,57.599,0.66,55.063V34.396c0-2.114,1.714-3.827,3.827-3.827H5.15z M5.942,5.545
		c-0.799,0-1.453,0.654-1.453,1.453v13.073c0,0.799,0.654,1.452,1.453,1.452h9.837c0.763,0,1.386-0.624,1.386-1.386V6.932
		c0-0.765-0.62-1.386-1.386-1.386H5.942z M40.802,56.518c0,2.114-1.714,3.827-3.827,3.827H33.87c-4.621,0-8.252-3.764-8.252-8.319
		V8.649c0-4.555,3.631-8.319,8.252-8.319h14.987c4.575,0,8.319,3.744,8.319,8.319v15.119c0,4.575-3.744,8.32-8.32,8.32h-5.678
		l4.358,7.196l3.677-2.473c2.094-1.408,4.933-0.864,6.358,1.218l-7.724,5.15l8.913,14.724l-0.629,0.373
		c-1.808,1.073-4.143,0.486-5.229-1.315L37.898,32.087h-7.791v19.939c0,2.179,1.651,3.829,3.763,3.829h6.932V56.518z M30.106,13.931
		h22.58V8.649c0-2.179-1.717-3.829-3.829-3.829H33.87c-2.112,0-3.763,1.65-3.763,3.829V13.931z M52.686,23.768v-5.348h-22.58v9.177
		h18.751C50.971,27.598,52.686,25.883,52.686,23.768"/>
	<path style="clip-path:url(#SVGID_2_);fill:#02C1FF;" d="M71.705,12.874l10.828,18.157c2.045-5.416,3.653-11.765,4.772-19.247
		c0.174-1.162-0.723-2.211-1.897-2.211h-17.73V8.911c0-2.114,1.713-3.827,3.827-3.827h16.892c2.337,0,4.126,2.079,3.788,4.391
		c-1.432,9.81-3.537,17.788-6.136,24.538c-0.421,1.094-0.309,2.318,0.293,3.324l8.009,13.368l-0.542,0.327
		c-1.814,1.094-4.172,0.507-5.26-1.31l-5.422-9.052c-3.829,7.593-8.517,13.403-13.733,18.421l-0.585-0.61
		c-1.408-1.466-1.432-3.784-0.035-5.26c4.055-4.282,7.663-9.114,10.707-15.112c0.597-1.176,0.547-2.581-0.132-3.711l-9.558-15.913
		c-1.093-1.819-0.496-4.18,1.328-5.262L71.705,12.874z"/>
	<path style="clip-path:url(#SVGID_2_);fill:#02C1FF;" d="M99.234,8.451h13.735c2.297,0,4.159-1.862,4.159-4.159V0.331
		c0-0.183,0.148-0.332,0.331-0.332c2.297,0,4.159,1.862,4.159,4.159V51.76c0,4.758-3.893,8.651-8.651,8.651h-5.547
		c-2.114,0-3.827-1.713-3.827-3.827v-0.331c0-0.183,0.149-0.331,0.332-0.331h9.042c2.298,0,4.161-1.862,4.161-4.161V17.099
		c0-2.297-1.862-4.159-4.159-4.159H95.738c-0.183,0-0.331-0.148-0.331-0.331v-0.331C95.407,10.164,97.12,8.451,99.234,8.451"/>
	<path style="clip-path:url(#SVGID_2_);fill:#02C1FF;" d="M101.385,25.486l7.095,12.015l-0.597,0.354
		c-1.821,1.08-4.172,0.477-5.249-1.346L95.54,24.494l0.597-0.354C97.957,23.06,100.308,23.663,101.385,25.486"/>
	<path style="clip-path:url(#SVGID_2_);fill:#02C1FF;" d="M162.747,2.265c-0.626,3.816-1.351,7.483-2.216,11.089
		c-0.262,1.093-0.045,2.245,0.614,3.155l29.2,40.358l-0.598,0.427c-1.714,1.225-4.095,0.834-5.327-0.873l-25.897-35.866
		c-4.754,14.92-12.611,28.125-25.221,39.349l-0.544-0.628c-1.342-1.551-1.207-3.867,0.269-5.289
		c13.95-13.444,21.039-29.914,24.587-48.765c0.384-2.042,2.318-3.411,4.369-3.079L162.747,2.265z"/>
</g>
</svg>
